<?xml version="1.0" standalone="no"?><!DOCTYPE svg PUBLIC "-//W3C//DTD SVG 1.1//EN"
  "http://www.w3.org/Graphics/SVG/1.1/DTD/svg11.dtd">
<svg class="icon" width="20px" height="20.00px" viewBox="0 0 1024 1024" version="1.1"
     xmlns="http://www.w3.org/2000/svg">
  <path
    d="M655.104 537.4976c27.648-32.6656 44.3904-74.9056 44.3904-120.9344 0-16.9984-2.2528-33.4336-6.5536-49.1008l165.5296-89.5488-346.0096-183.0912-346.9312 183.04L331.264 367.2576a186.2144 186.2144 0 0 0-6.5536 49.2544c0 48.0256 18.1248 91.8528 47.9744 125.0816-49.6128 24.4224-92.3136 60.8768-124.672 106.7008-39.5776 56.0128-60.4672 121.7536-60.4672 190.1568 0 34.7648 28.2624 63.0272 63.0272 63.0272h198.0928c2.7648 0 5.4272-0.3584 7.9872-0.9728l42.1888 24.3712c5.0688 2.9184 10.752 4.4032 16.384 4.4032s11.3152-1.4336 16.384-4.4032l83.4048-48.128a32.768 32.768 0 0 0 16.384-28.3648v-96.3072c0-11.7248-6.2464-22.528-16.384-28.3648l-83.4048-48.128a32.84992 32.84992 0 0 0-32.768 0l-83.4048 48.128a32.768 32.768 0 0 0-16.384 28.3648v83.9168H252.9792c0.512-53.8624 17.2544-105.6256 48.4352-149.8112 31.0784-43.9296 73.8816-77.1584 123.8528-96 2.6624-1.024 5.0688-2.304 7.2704-3.84 24.1152 11.3664 51.0464 17.664 79.4624 17.664 30.8224 0 59.904-7.4752 85.5552-20.6848 2.816 2.304 6.0416 4.1472 9.6256 5.4272 104.6016 37.632 175.1552 136.8064 176.1792 247.3472a32.7424 32.7424 0 0 0-30.2592 32.6656c0 18.1248 14.6432 32.768 32.768 32.768 34.7648 0 63.0272-28.2624 63.0272-63.0272 0.0512-129.8432-76.8-247.552-193.792-301.0048z m-190.5664 233.4208l50.6368-29.2352 50.6368 29.2352v58.4704l-50.6368 29.2352-50.6368-29.2352v-58.4704z m47.5136-232.5504c-67.1744 0-121.856-54.6816-121.856-121.856s54.6816-121.856 121.856-121.856 121.856 54.6816 121.856 121.856-54.6304 121.856-121.856 121.856z m0-309.248c-62.9248 0-118.6816 31.1808-152.6784 78.848L304.7424 278.528l207.6672-109.6192 207.104 109.6192-54.6816 29.5936c-33.9968-47.7696-89.8048-79.0016-152.7808-79.0016z"/>
</svg>
