<?xml version="1.0" standalone="no"?><!DOCTYPE svg PUBLIC "-//W3C//DTD SVG 1.1//EN" "http://www.w3.org/Graphics/SVG/1.1/DTD/svg11.dtd"><svg class="icon" width="200px" height="200.00px" viewBox="0 0 1024 1024" version="1.1" xmlns="http://www.w3.org/2000/svg"><path d="M948.081425 709.606567c-10.830673-21.651113-27.447119-39.694047-48.055482-52.17736-20.035312-12.135388-42.983977-18.551518-66.3655-18.551518-19.989263 0-39.244816 4.577249-57.186444 13.580297-30.565133 15.252379-53.345975 41.502229-64.145949 73.912383-2.199085 6.600325-3.839445 13.295817-4.941546 20.030196l-388.098085 0.221034c-2.062985-12.640901-6.046716-25.038256-11.943007-36.823674-5.945409-11.862165-13.642718-22.629393-22.775726-32.000831l211.118302-305.612443c15.745612 6.649444 32.704866 10.124592 49.900503 10.125615 0.001023 0 0.001023 0 0.002047 0 19.944238 0 39.159882-4.547573 57.130162-13.528108 63.039755-31.601742 88.666412-108.612697 57.133232-171.655522-10.81123-21.659299-27.430746-39.702234-48.058552-52.179406-20.028149-12.114922-42.98193-18.517749-66.376757-18.517749-19.973914 0-39.214117 4.554736-57.186444 13.535271-30.562063 15.268752-53.338812 41.541115-64.133669 73.976852-10.793834 32.428573-8.314363 67.128887 6.988158 97.722672 7.43125 14.82566 17.58654 27.954679 29.881564 38.764885L251.652995 653.432173c-18.161638-9.364275-38.319747-14.280238-58.808384-14.280238-19.945261 0-39.157835 4.545526-57.130162 13.525038C72.672648 684.279738 47.047014 761.291716 78.582241 824.334541c10.81123 21.658276 27.429723 39.701211 48.058552 52.178383 20.028149 12.113899 42.980907 18.517749 66.37778 18.518772 0.002047 0 0.004093 0 0.007163 0 19.967774 0 39.20593-4.553713 57.17928-13.534248 30.562063-15.269775 53.337789-41.543162 64.132646-73.978898 2.189875-6.578836 3.823072-13.251815 4.924149-19.964704l388.117528-0.221034c2.068102 12.603039 6.049786 24.960485 11.93482 36.7019 10.831696 21.651113 27.449165 39.693024 48.056506 52.176336 20.034289 12.135388 42.982954 18.551518 66.363454 18.552541 0.00307 0 0.00307 0 0.00614 0 19.98517 0 39.238676-4.576225 57.190537-13.58439 30.56104-15.272845 53.338812-41.544185 64.135716-73.973782C965.857277 774.785032 963.375759 740.117464 948.081425 709.606567zM462.937073 226.866984c7.339152-22.050202 22.819728-39.908942 43.592844-50.287313 12.241812-6.118348 25.325805-9.218966 38.890752-9.218966 33.202193 0 63.018266 18.410302 77.82039 48.060599 21.452591 42.889833 4.019547 95.271854-38.838563 116.756167-12.216229 6.104021-25.272593 9.199523-38.810934 9.199523-33.1981 0-63.052035-18.414395-77.902254-48.040133C457.282283 272.532023 455.594851 248.926396 462.937073 226.866984zM231.909325 844.881506c-12.241812 6.117324-25.323758 9.217942-38.884612 9.217942-0.001023 0-0.00307 0-0.004093 0-33.205263-0.001023-63.022359-18.411325-77.82346-48.061622-21.454638-42.889833-4.021593-95.272877 38.835494-116.757191 12.216229-6.102998 25.27464-9.196453 38.811957-9.196453 18.418488 0 35.800367 5.675256 50.167586 15.779382 0.816598 0.796132 1.704828 1.541099 2.674922 2.211365 0.51063 0.353041 1.032516 0.670266 1.561565 0.971118 9.646708 7.710612 17.71343 17.539468 23.496134 29.077246 5.806239 11.608386 8.891508 24.089651 9.214872 36.687574-0.083911 0.756223-0.1361 1.521656-0.1361 2.300392 0 0.775666 0.053212 1.538029 0.137123 2.290159-0.234337 8.462742-1.716084 16.935718-4.463662 25.191752C268.160971 816.644395 252.680395 834.503135 231.909325 844.881506zM916.226926 794.276968c-7.339152 22.048155-22.821775 39.906895-43.626613 50.302663-12.233626 6.139837-25.307386 9.252735-38.862099 9.252735-0.001023 0-0.00307 0-0.004093 0-33.152051-0.002047-62.969147-18.436908-77.821413-48.124044-5.79089-11.555174-8.874111-23.980157-9.212826-36.524868 0.086981-0.768503 0.14224-1.547239 0.14224-2.338255 0-0.800225-0.058328-1.586125-0.148379-2.362814 0.234337-8.453533 1.718131-16.919345 4.466732-25.171286 7.339152-22.024619 22.819728-39.862893 43.63173-50.248428 12.233626-6.138814 25.310456-9.252735 38.867216-9.252735 33.153074 0 62.969147 18.434861 77.819366 48.123021C921.878646 748.676397 923.564032 772.239046 916.226926 794.276968z" /></svg>