<?xml version="1.0" standalone="no"?><!DOCTYPE svg PUBLIC "-//W3C//DTD SVG 1.1//EN" "http://www.w3.org/Graphics/SVG/1.1/DTD/svg11.dtd"><svg t="1618327677299" class="icon" viewBox="0 0 1024 1024" version="1.1" xmlns="http://www.w3.org/2000/svg" p-id="2799" xmlns:xlink="http://www.w3.org/1999/xlink" width="200" height="200"><defs><style type="text/css"></style></defs><path d="M114.27 514.889c0-56.005 10.964-110.324 32.588-161.447 20.89-49.39 50.8-93.751 88.9-131.851 38.1-38.1 82.462-68.01 131.85-88.9 51.125-21.624 105.443-32.59 161.447-32.59 85.197 0 167.892 26.2 237.124 74.462l-99.87 16.831c-10.993 1.852-18.402 12.265-16.55 23.257 1.662 9.856 10.206 16.831 19.88 16.831 1.114 0 2.242-0.092 3.377-0.283l146.636-24.713c10.992-1.852 18.4-12.265 16.549-23.256L813.435 48.122c-1.853-10.99-12.254-18.398-23.256-16.549-10.993 1.852-18.4 12.264-16.55 23.256l14.457 85.792c-75.734-52.439-166.03-80.884-259.03-80.884-61.437 0-121.045 12.037-177.172 35.776-54.201 22.925-102.875 55.74-144.669 97.535-41.793 41.794-74.609 90.467-97.534 144.669-23.74 56.126-35.777 115.736-35.777 177.17 0 71.051 15.922 139.112 47.324 202.295 3.527 7.097 10.668 11.204 18.089 11.204a20.08 20.08 0 0 0 8.967-2.114c9.983-4.96 14.052-17.074 9.091-27.056-28.602-57.549-43.105-119.566-43.105-184.327zM939.095 314.071c-4.959-9.982-17.072-14.054-27.056-9.093-9.982 4.96-14.053 17.073-9.093 27.056 28.6 57.555 43.1 119.575 43.1 184.336 0 56.003-10.963 110.321-32.588 161.443-20.89 49.39-50.8 93.75-88.9 131.85-38.1 38.1-82.46 68.01-131.85 88.9-51.125 21.624-105.443 32.588-161.447 32.588a414.631 414.631 0 0 1-237.122-74.46l99.868-16.827c10.991-1.852 18.4-12.264 16.549-23.256-1.853-10.993-12.262-18.394-23.256-16.55l-146.635 24.707a20.187 20.187 0 0 0-16.548 23.257l22.767 135.113c1.66 9.858 10.204 16.834 19.878 16.833 1.113 0 2.244-0.093 3.378-0.284 10.99-1.852 18.4-12.264 16.548-23.256l-14.456-85.798c75.735 52.439 166.03 80.885 259.032 80.885 61.435 0 121.045-12.037 177.17-35.776 54.202-22.925 102.877-55.742 144.67-97.535 41.794-41.793 74.61-90.466 97.535-144.667 23.74-56.126 35.776-115.734 35.776-177.17-0.002-71.047-15.923-139.11-47.32-202.296z" fill="" p-id="2800"></path></svg>