<?xml version="1.0" standalone="no"?><!DOCTYPE svg PUBLIC "-//W3C//DTD SVG 1.1//EN" "http://www.w3.org/Graphics/SVG/1.1/DTD/svg11.dtd"><svg t="1618329711718" class="icon" viewBox="0 0 1024 1024" version="1.1" xmlns="http://www.w3.org/2000/svg" p-id="3698" xmlns:xlink="http://www.w3.org/1999/xlink" width="48" height="48"><defs><style type="text/css"></style></defs><path d="M789.333333 938.666667H256a128 128 0 0 1-128-128V214.4A128 128 0 0 1 256 85.333333h512a128 128 0 0 1 128 129.066667 29.653333 29.653333 0 1 1-59.093333 0A69.333333 69.333333 0 0 0 768 144.853333H256a69.333333 69.333333 0 0 0-68.906667 69.546667V810.666667A69.333333 69.333333 0 0 0 256 879.146667h533.333333A29.866667 29.866667 0 0 1 789.333333 938.666667z" p-id="3699" fill="#2c2c2c"></path><path d="M892.16 684.8a273.066667 273.066667 0 0 0-155.946667-172.8 159.573333 159.573333 0 1 0-205.866666 0 272.426667 272.426667 0 0 0-155.946667 172.373333 85.333333 85.333333 0 0 0 12.8 76.586667 83.626667 83.626667 0 0 0 68.48 34.986667H810.666667a85.333333 85.333333 0 0 0 68.693333-34.986667 85.333333 85.333333 0 0 0 12.8-76.16zM532.053333 389.12a101.12 101.12 0 1 1 101.12 102.826667 101.973333 101.973333 0 0 1-101.12-102.826667zM832 726.613333a26.24 26.24 0 0 1-21.333333 10.88H455.68a25.813333 25.813333 0 0 1-21.333333-10.88 26.24 26.24 0 0 1-4.053334-24.32 211.84 211.84 0 0 1 405.333334 0 27.52 27.52 0 0 1-3.626667 24.32z" p-id="3700" fill="#2c2c2c"></path><path d="M229.12 288.426667m30.506667 0l161.28 0q30.506667 0 30.506666 30.506666l0 0q0 30.506667-30.506666 30.506667l-161.28 0q-30.506667 0-30.506667-30.506667l0 0q0-30.506667 30.506667-30.506666Z" p-id="3701" fill="#2c2c2c"></path><path d="M229.12 430.72m30.506667 0l100.693333 0q30.506667 0 30.506667 30.506667l0 0q0 30.506667-30.506667 30.506666l-100.693333 0q-30.506667 0-30.506667-30.506666l0 0q0-30.506667 30.506667-30.506667Z" p-id="3702" fill="#2c2c2c"></path></svg>