<?xml version="1.0" standalone="no"?><!DOCTYPE svg PUBLIC "-//W3C//DTD SVG 1.1//EN" "http://www.w3.org/Graphics/SVG/1.1/DTD/svg11.dtd"><svg t="1608950171114" class="icon" viewBox="0 0 1024 1024" version="1.1" xmlns="http://www.w3.org/2000/svg" p-id="2483" xmlns:xlink="http://www.w3.org/1999/xlink" width="48" height="48"><defs><style type="text/css"></style></defs><path d="M101.33 362.67c-20.53 0-37.33-16.8-37.33-37.33v-168C64 105.07 105.07 64 157.33 64h168c20.53 0 37.33 16.8 37.33 37.33 0 20.53-16.8 37.33-37.33 37.33h-168c-9.33 0-18.67 9.34-18.67 18.67v168c0.01 20.54-16.79 37.34-37.33 37.34z m821.34 0c-20.53 0-37.33-16.8-37.33-37.33v-168c0-9.33-9.34-18.67-18.67-18.67h-168c-20.53 0-37.33-16.8-37.33-37.33 0-20.53 16.8-37.33 37.33-37.33h168c52.26 0 93.33 41.07 93.33 93.33v168c0 20.53-16.8 37.33-37.33 37.33z m-56 597.33h-168c-20.53 0-37.33-16.8-37.33-37.33 0-20.53 16.8-37.33 37.33-37.33h168c9.33 0 18.67-9.34 18.67-18.67v-168c0-20.53 16.8-37.33 37.33-37.33 20.53 0 37.33 16.8 37.33 37.33v168c0 52.26-41.07 93.33-93.33 93.33z m-541.34 0h-168C105.07 960 64 918.93 64 866.67v-168c0-20.53 16.8-37.33 37.33-37.33 20.53 0 37.33 16.8 37.33 37.33v168c0 9.33 9.34 18.67 18.67 18.67h168c20.53 0 37.33 16.8 37.33 37.33 0.01 20.53-16.79 37.33-37.33 37.33z m0 0M922.67 558.67H101.33c-20.53 0-37.33-16.8-37.33-37.33C64 500.8 80.8 484 101.33 484h821.33c20.53 0 37.33 16.8 37.33 37.33 0.01 20.54-16.79 37.34-37.32 37.34z m0 0" p-id="2484" fill="#2c2c2c"></path></svg>