<?xml version="1.0" standalone="no"?><!DOCTYPE svg PUBLIC "-//W3C//DTD SVG 1.1//EN" "http://www.w3.org/Graphics/SVG/1.1/DTD/svg11.dtd"><svg t="1609565902866" class="icon" viewBox="0 0 1024 1024" version="1.1" xmlns="http://www.w3.org/2000/svg" p-id="3171" xmlns:xlink="http://www.w3.org/1999/xlink" width="48" height="48"><defs><style type="text/css"></style></defs><path d="M428.8 385.28c107.52 0 218.88-23.04 285.44-69.12v81.92h61.44v-179.2c0-107.52-179.2-166.4-348.16-166.4S79.36 110.08 79.36 218.88v488.96c0 107.52 179.2 166.4 348.16 166.4v-61.44c-176.64 0-285.44-60.16-285.44-103.68V561.92c66.56 44.8 177.92 69.12 285.44 69.12v-61.44c-176.64 0-285.44-60.16-285.44-103.68V317.44c69.12 44.8 180.48 67.84 286.72 67.84z m0-270.08c176.64 0 285.44 60.16 285.44 103.68 0 43.52-108.8 103.68-285.44 103.68s-285.44-60.16-285.44-103.68c0-42.24 108.8-103.68 285.44-103.68z m279.04 304.64c-153.6 0-234.24 58.88-234.24 117.76v313.6c0 58.88 80.64 117.76 234.24 117.76 152.32 0 232.96-58.88 234.24-116.48V537.6c0-58.88-80.64-117.76-234.24-117.76z m0 61.44c113.92 0 172.8 39.68 172.8 56.32 0 16.64-58.88 56.32-172.8 56.32S535.04 554.24 535.04 537.6c0-16.64 58.88-56.32 172.8-56.32z m0 426.24c-113.92 0-172.8-39.68-172.8-56.32v-75.52c39.68 21.76 97.28 35.84 172.8 35.84s133.12-14.08 172.8-35.84v75.52c-1.28 16.64-60.16 56.32-172.8 56.32z m0-157.44c-113.92 0-172.8-39.68-172.8-56.32v-75.52c39.68 21.76 97.28 35.84 172.8 35.84s133.12-14.08 172.8-35.84v75.52c-1.28 16.64-60.16 56.32-172.8 56.32z m0 0" fill="#2c2c2c" p-id="3172"></path></svg>