<?xml version="1.0" standalone="no"?><!DOCTYPE svg PUBLIC "-//W3C//DTD SVG 1.1//EN" "http://www.w3.org/Graphics/SVG/1.1/DTD/svg11.dtd"><svg t="1608950314195" class="icon" viewBox="0 0 1024 1024" version="1.1" xmlns="http://www.w3.org/2000/svg" p-id="7635" xmlns:xlink="http://www.w3.org/1999/xlink" width="48" height="48"><defs><style type="text/css"></style></defs><path d="M376.3 253.4c4.9 103.4 47.8 202.4 123.1 277.7 74.8 74.8 172.8 118.1 277.8 123-12.8 22.4-28.6 43-47.2 61.6-28 28-60.7 49.7-97.1 64.5-35.2 14.3-72.3 21.5-110.5 21.5-38.5 0-76-7.4-111.5-21.9-36.7-15-69.6-37.2-97.7-65.7-28.4-28.8-50.1-62.2-64.6-99.3-14-35.8-20.7-73.5-20-112.2s8.9-76.2 24.3-111.5c15.9-36.6 39-69.2 68.5-96.9 16.7-15.8 35.2-29.5 54.9-40.8m71.4-95c-61.9 13.1-121 42.9-170.2 89.1-146.6 137.9-151.2 368-10 511.4C337.6 830 430 865.6 522.4 865.6c91.5 0 183-34.9 252.8-104.7 37.4-37.4 64.8-81.1 82.2-127.6 8-21.5-8.1-43.9-30.5-43.9-0.8 0-1.7 0-2.5 0.1-8.9 0.7-17.9 1-26.8 1-91.5 0-183-34.9-252.8-104.7-89.1-88.9-121.4-213-97.1-327.4z" p-id="7636"></path></svg>