<?xml version="1.0" standalone="no"?><!DOCTYPE svg PUBLIC "-//W3C//DTD SVG 1.1//EN" "http://www.w3.org/Graphics/SVG/1.1/DTD/svg11.dtd"><svg t="1612438030663" class="icon" viewBox="0 0 1024 1024" version="1.1" xmlns="http://www.w3.org/2000/svg" p-id="2142" xmlns:xlink="http://www.w3.org/1999/xlink" width="48" height="48"><defs><style type="text/css"></style></defs><path d="M557.2 512l113.2-113.2c12.6-12.4 12.6-32.8 0-45.2-12.6-12.6-32.8-12.6-45.2 0L512 466.8l-113.2-113.2c-12.6-12.6-32.8-12.6-45.2 0-12.6 12.4-12.6 32.8 0 45.2l113.2 113.2-113.2 113.2c-12.6 12.6-12.6 32.8 0 45.2 6.2 6.2 14.4 9.4 22.6 9.4s16.4-3.2 22.6-9.4l113.2-113.2 113.2 113.2c6.2 6.2 14.4 9.4 22.6 9.4s16.4-3.2 22.6-9.4c12.6-12.6 12.6-32.8 0-45.2L557.2 512z" p-id="2143" fill="#A8A8A8"></path></svg>