<?xml version="1.0" standalone="no"?><!DOCTYPE svg PUBLIC "-//W3C//DTD SVG 1.1//EN" "http://www.w3.org/Graphics/SVG/1.1/DTD/svg11.dtd"><svg t="1612438137629" class="icon" viewBox="0 0 1024 1024" version="1.1" xmlns="http://www.w3.org/2000/svg" p-id="3168" xmlns:xlink="http://www.w3.org/1999/xlink" width="48" height="48"><defs><style type="text/css"></style></defs><path d="M 512 149.333 C 121.6 149.333 0 512 0 512 s 134.4 362.667 512 362.667 s 512 -362.667 512 -362.667 S 902.4 149.333 512 149.333 Z m 0 533.333 c -93.8667 0 -170.667 -76.8 -170.667 -170.667 s 76.8 -170.667 170.667 -170.667 s 170.667 76.8 170.667 170.667 s -76.8 170.667 -170.667 170.667 Z" fill="#A8A8A8" p-id="3169"></path><path d="M 512 512 m -128 0 a 128 128 0 1 0 256 0 a 128 128 0 1 0 -256 0 Z" fill="#A8A8A8" p-id="3170"></path></svg>