<?xml version="1.0" standalone="no"?><!DOCTYPE svg PUBLIC "-//W3C//DTD SVG 1.1//EN" "http://www.w3.org/Graphics/SVG/1.1/DTD/svg11.dtd"><svg t="1612076149526" class="icon" viewBox="0 0 1368 1024" version="1.1" xmlns="http://www.w3.org/2000/svg" p-id="14466" xmlns:xlink="http://www.w3.org/1999/xlink" width="64.125" height="48"><defs><style type="text/css"></style></defs><path d="M1134.70261 14.710182a42.146097 42.146097 0 0 0-63.986989 0L315.669147 902.849594 78.490707 639.223198a41.036989 41.036989 0 0 0-44.364313-13.650558 47.009108 47.009108 0 0 0-31.566914 35.832714 52.981227 52.981227 0 0 0 11.944238 48.630112l268.745355 299.45911a42.657993 42.657993 0 0 0 31.566914 14.503718 42.657993 42.657993 0 0 0 32.420075-14.503718L1134.70261 85.52245a52.725279 52.725279 0 0 0 0-70.812268z m-170.631971 381.362457h357.47398a49.73922 49.73922 0 0 0 46.923792-52.042752 50.507064 50.507064 0 0 0-46.923792-52.895911h-259.360596z m357.47398 209.024165H836.09666L738.836437 710.035466h582.708182a49.483272 49.483272 0 0 0 45.217473-52.042751 50.336432 50.336432 0 0 0-45.217473-52.895911z m0 314.815987H610.862458L512.749074 1023.998294h808.795545a52.554647 52.554647 0 0 0 0-104.085503z m0 0" p-id="14467" fill="#2c2c2c"></path></svg>