<?xml version="1.0" standalone="no"?><!DOCTYPE svg PUBLIC "-//W3C//DTD SVG 1.1//EN" "http://www.w3.org/Graphics/SVG/1.1/DTD/svg11.dtd"><svg t="1614670432060" class="icon" viewBox="0 0 1024 1024" version="1.1" xmlns="http://www.w3.org/2000/svg" p-id="3441" xmlns:xlink="http://www.w3.org/1999/xlink" width="48" height="48"><defs><style type="text/css"></style></defs><path d="M511.772444 704c-108.657778 0-191.829333-83.228444-191.829333-192s83.114667-192 191.829333-192c108.657778 0 191.772444 83.228444 191.772445 192s-83.057778 192-191.772445 192z m0-320A128.341333 128.341333 0 0 0 383.886222 512a128.341333 128.341333 0 0 0 127.886222 128A128.341333 128.341333 0 0 0 639.658667 512a128.341333 128.341333 0 0 0-127.886223-128z" p-id="3442"></path><path d="M639.658667 1024H383.886222c-19.171556 0-31.971556-12.8-31.971555-32.028444V870.4c-25.6-12.8-51.2-25.6-70.314667-38.4L179.2 896a33.678222 33.678222 0 0 1-44.714667-12.8L6.656 659.171556c-12.8-19.171556-6.371556-38.4 12.8-44.771556L121.742222 550.4v-76.8L19.456 409.6c-19.171556-6.371556-25.6-25.6-12.8-44.828444l127.886222-223.971556c6.371556-12.8 25.6-19.171556 44.714667-6.428444L281.6 198.371556c19.171556-12.743111 44.714667-31.971556 70.314667-38.4V32.028444c0-19.171556 12.8-31.971556 31.971555-31.971555h255.772445c19.171556 0 31.971556 12.8 31.971555 32.028444V153.6c25.6 12.8 51.143111 25.6 70.314667 38.4L844.231111 128a33.678222 33.678222 0 0 1 44.771556 12.8l127.886222 223.971556c12.743111 19.228444 6.371556 38.456889-12.8 44.828444l-102.286222 64v76.8L1004.088889 614.4c12.8 6.371556 19.171556 25.6 12.8 44.771556l-127.886222 224.028444c-6.428444 12.8-25.6 19.228444-44.771556 12.8l-102.286222-64c-19.171556 12.8-44.771556 32.028444-70.314667 38.4v121.571556c0 19.228444-12.8 32.028444-31.971555 32.028444zM415.857778 960h191.829333v-108.771556c0-12.8 6.371556-25.6 19.171556-32.028444a407.552 407.552 0 0 0 89.486222-51.2 40.732444 40.732444 0 0 1 38.4 0l95.857778 57.571556 95.914666-166.4-95.914666-57.571556c-12.743111-12.8-19.171556-25.6-12.743111-38.4 0-19.228444 6.371556-32.028444 6.371555-51.2 0-19.228444 0-32.028444-6.371555-51.2a48.924444 48.924444 0 0 1 12.743111-32.028444l95.914666-57.571556L850.602667 204.8l-95.857778 57.571556a40.732444 40.732444 0 0 1-38.4 0 407.552 407.552 0 0 0-89.486222-51.2c-12.8-12.8-19.171556-25.6-19.171556-38.4V64.056889H415.857778v108.828444c0 12.8-6.371556 25.6-19.171556 31.971556a407.552 407.552 0 0 0-89.543111 51.2 40.732444 40.732444 0 0 1-38.343111 0l-95.914667-51.2-95.914666 166.4L172.942222 428.771556c12.8 6.428444 19.171556 19.228444 12.8 32.028444 0 19.228444-6.428444 32.028444-6.428444 51.2 0 19.228444 0 32.028444 6.428444 51.2 6.371556 12.8 0 25.6-12.8 32.028444l-95.914666 57.571556L172.942222 819.2l95.914667-57.628444a40.732444 40.732444 0 0 1 38.343111 0c25.6 19.228444 57.571556 38.4 89.543111 51.2a35.214222 35.214222 0 0 1 19.171556 32.028444v115.2z" p-id="3443" data-spm-anchor-id="a313x.7781069.0.i1" class="selected"></path></svg>