<?xml version="1.0" standalone="no"?><!DOCTYPE svg PUBLIC "-//W3C//DTD SVG 1.1//EN" "http://www.w3.org/Graphics/SVG/1.1/DTD/svg11.dtd"><svg t="1612438178585" class="icon" viewBox="0 0 1366 1024" version="1.1" xmlns="http://www.w3.org/2000/svg" p-id="3412" xmlns:xlink="http://www.w3.org/1999/xlink" width="64.03125" height="48"><defs><style type="text/css"></style></defs><path d="M1362.133 486.4l-81.066-115.2c21.333-17.067 46.933-38.4 68.266-59.733 12.8-12.8 12.8-34.134 4.267-46.934-12.8-12.8-29.867-12.8-42.667-4.266-153.6 145.066-320 234.666-482.133 268.8-132.267 25.6-264.533 17.066-396.8-29.867-119.467-42.667-213.333-102.4-273.067-149.333C90.667 307.2 52.267 268.8 52.267 264.533c-12.8-12.8-29.867-12.8-42.667 0s-12.8 34.134 0 46.934c0 0 29.867 34.133 81.067 76.8L18.133 486.4C9.6 499.2 9.6 520.533 22.4 533.333c4.267 4.267 12.8 8.534 17.067 8.534 8.533 0 17.066-4.267 25.6-12.8l72.533-98.134c51.2 38.4 128 85.334 217.6 123.734L308.267 665.6c-8.534 17.067 0 34.133 12.8 42.667 4.266 0 8.533 4.266 12.8 4.266 12.8 0 21.333-8.533 25.6-17.066l51.2-115.2c76.8 25.6 157.866 42.666 234.666 42.666v123.734c0 17.066 12.8 34.133 29.867 34.133s29.867-12.8 29.867-34.133V622.933c42.666 0 85.333-8.533 123.733-12.8 42.667-8.533 89.6-21.333 132.267-38.4l51.2 119.467c4.266 12.8 17.066 17.067 25.6 17.067 4.266 0 8.533 0 12.8-4.267 17.066-8.533 21.333-25.6 12.8-42.667l-38.4-123.733c68.266-29.867 140.8-72.533 204.8-123.733l81.066 115.2c4.267 8.533 17.067 12.8 25.6 12.8 4.267 0 12.8 0 17.067-4.267 12.8-17.067 17.067-34.133 8.533-51.2z" p-id="3413" fill="#A8A8A8"></path></svg>