<?xml version="1.0" standalone="no"?><!DOCTYPE svg PUBLIC "-//W3C//DTD SVG 1.1//EN" "http://www.w3.org/Graphics/SVG/1.1/DTD/svg11.dtd"><svg class="icon" width="20px" height="20.00px" viewBox="0 0 1024 1024" version="1.1" xmlns="http://www.w3.org/2000/svg"><path d="M513.3 898c-211.6 0-383.8-172.2-383.8-383.8s172.2-383.8 383.8-383.8 383.8 172.2 383.8 383.8S725 898 513.3 898z m0-702c-175.4 0-318.2 142.7-318.2 318.2s142.8 318.2 318.2 318.2 318.2-142.7 318.2-318.2S688.7 196 513.3 196z"  /><path d="M406.1 455c-18.1 0-32.8-14.7-32.8-32.8v-50.1c0-18.1 14.7-32.8 32.8-32.8s32.8 14.7 32.8 32.8v50.1c0 18.1-14.6 32.8-32.8 32.8zM620.5 455c-18.1 0-32.8-14.7-32.8-32.8v-50.1c0-18.1 14.7-32.8 32.8-32.8 18.1 0 32.8 14.7 32.8 32.8v50.1c0 18.1-14.6 32.8-32.8 32.8zM573.8 708.5c-52.3 0-93.3-53-93.3-120.6 0-18.1 14.7-32.8 32.8-32.8s32.8 14.7 32.8 32.8c0 33 16.7 55 27.7 55s27.7-21.9 27.7-55c0-18.1 14.7-32.8 32.8-32.8 18.1 0 32.8 14.7 32.8 32.8 0 67.6-41 120.6-93.3 120.6z"  /><path d="M452.8 708.5c-52.3 0-93.3-53-93.3-120.6 0-18.1 14.7-32.8 32.8-32.8 18.1 0 32.8 14.7 32.8 32.8 0 33 16.7 55 27.7 55s27.7-21.9 27.7-55c0-18.1 14.7-32.8 32.8-32.8s32.8 14.7 32.8 32.8c0 67.6-41 120.6-93.3 120.6z"  /></svg>
