<?xml version="1.0" standalone="no"?><!DOCTYPE svg PUBLIC "-//W3C//DTD SVG 1.1//EN"
  "http://www.w3.org/Graphics/SVG/1.1/DTD/svg11.dtd">
<svg class="icon" width="20px" height="19.636px" viewBox="0 0 1043 1024" version="1.1"
     xmlns="http://www.w3.org/2000/svg">
  <path
    d="M643.614118 251.783529c-11.745882 10.24-29.515294 9.336471-40.056471-2.409412-10.24-11.745882-9.336471-29.515294 2.409412-40.056471 32.527059-28.611765 63.247059-50.898824 100.894118-72.583529C798.117647 189.741176 878.531765 271.36 936.658824 358.701176c47.887059 72.282353 83.124706 154.804706 83.124706 237.628235 0 85.232941-34.032941 156.009412-89.148235 206.004706-56.922353 51.802353-136.432941 81.016471-223.774118 81.016471-15.661176 0-28.310588-12.649412-28.310588-28.310588 0-15.661176 12.649412-28.310588 28.310588-28.310588 73.185882 0 139.143529-23.792941 185.524706-66.258824 43.670588-39.454118 70.475294-95.774118 70.475294-164.141176 0-70.475294-31.021176-142.456471-73.487059-206.305882-56.32-84.329412-131.312941-153.298824-182.512941-187.030588C684.574118 217.449412 663.491765 234.315294 643.614118 251.783529L643.614118 251.783529z"/>
  <path
    d="M656.263529 333.703529c-66.56-99.990588-162.334118-198.174118-266.842353-259.011765-105.411765 60.837647-200.583529 155.708235-268.047059 256.602353-55.717647 83.727059-96.376471 180.705882-96.376471 280.395294 0 99.087059 39.454118 181.308235 103.604706 239.435294 66.258824 60.235294 159.021176 94.569412 260.818824 94.569412 102.098824 0 194.56-34.032941 260.818824-94.569412 64.150588-58.127059 103.604706-140.348235 103.604706-239.435294C753.543529 514.710588 712.583529 418.032941 656.263529 333.703529zM611.990588 809.261176c-55.717647 50.898824-134.927059 79.510588-222.870588 79.510588-87.943529 0-166.851765-28.912941-222.870588-79.510588-52.404706-47.887059-84.931765-115.651765-84.931765-197.571765 0-87.341176 36.743529-173.477647 87.04-249.072941 67.162353-100.894118 158.117647-181.910588 220.461176-221.967059 61.138824 39.755294 152.094118 122.578824 219.858824 224.376471 50.597647 76.197647 87.943529 162.032941 87.943529 246.663529C696.922353 693.609412 664.395294 761.374118 611.990588 809.261176z"/>
  <path
    d="M439.717647 376.169412l-98.183529 0L208.715294 722.221176l94.870588 0 23.792941-60.235294 124.084706 0 22.287059 60.235294 96.075294 0L439.717647 376.169412zM351.774118 593.618824l38.249412-110.531765 37.647059 110.531765L351.774118 593.618824z"/>
</svg>
