<?xml version="1.0" standalone="no"?><!DOCTYPE svg PUBLIC "-//W3C//DTD SVG 1.1//EN" "http://www.w3.org/Graphics/SVG/1.1/DTD/svg11.dtd"><svg t="1612275261946" class="icon" viewBox="0 0 1024 1024" version="1.1" xmlns="http://www.w3.org/2000/svg" p-id="21584" xmlns:xlink="http://www.w3.org/1999/xlink" width="48" height="48"><defs><style type="text/css"></style></defs><path d="M518.239 875.222c-12.269 0-27.604-4.597-38.345-15.335l-257.669-271.478c-36.81-46.013-56.75-104.299-56.75-165.647 0-131.903 93.558-242.335 208.59-242.335 52.144 0 101.227 23.006 139.57 62.881 38.345-41.418 87.428-62.881 139.57-62.881 115.034 0 208.59 107.365 208.59 242.335 0 62.881-21.475 124.234-58.285 167.179l-3.067 3.067c-44.476 50.614-239.267 260.743-248.467 269.939-9.204 10.736-23.006 12.269-33.741 12.269zM498.297 838.415c6.138 6.138 12.269 7.667 19.94 7.667 9.204 0 9.204 0 19.94-3.067 9.204-10.736 202.459-219.328 248.467-269.939l3.067-3.067c32.21-39.875 50.614-92.027 50.614-148.778 0-118.096-82.823-205.526-182.522-213.193-61.347-3.067-96.627 23.006-130.368 62.881l-9.204 10.736-9.204-10.736c-33.741-41.418-81.29-62.881-130.368-62.881-101.227 0-182.522 95.092-182.522 213.193 0 53.685 16.869 105.828 49.081 145.709-1.532 1.532 253.068 271.478 253.068 271.478z" fill="#3F0A00" p-id="21585"></path><path d="M660.879 206.503c-73.619-7.667-110.432 33.741-144.178 75.159-33.741-41.418-73.619-69.018-124.234-69.018-101.227 0-184.050 95.092-184.050 213.193 0 53.685 16.869 104.299 49.081 145.709l4.597 4.597 233.132 256.139c7.667 7.667 16.869 12.269 29.145 12.269s21.475-4.597 29.145-12.269 191.719-208.59 233.132-256.139l1.532-1.532c32.21-39.875 50.614-93.558 50.614-147.239 3.067-118.096-76.687-213.193-177.916-220.861z" fill="#E93B00" p-id="21586"></path><path d="M507.502 258.649c-3.067-1.532-4.597-3.067-7.667-4.597 1.532 1.532 4.597 3.067 7.667 4.597-1.532 1.532-1.532 0 0 0zM763.642 249.448c35.276 39.875 58.285 98.162 58.285 157.981 0 55.217-18.405 107.365-50.614 147.239l-1.532 1.532c-42.945 47.548-225.466 248.467-233.132 256.139s-18.405 12.269-29.145 12.269c-6.138 0-10.736-1.532-16.869-4.597l9.204 10.736c7.667 7.667 16.869 12.269 29.145 12.269s21.475-4.597 29.145-12.269 191.719-208.59 233.132-256.139l1.532-1.532c32.21-39.875 50.614-93.558 50.614-147.239 0-69.018-33.741-136.502-79.755-176.381z" fill="#C33300" p-id="21587"></path><path d="M263.636 445.773c-7.667 0-12.269-6.138-12.269-15.335 0-92.027 65.955-167.179 145.709-167.179 7.667 0 12.269 6.138 12.269 15.335 0 7.667-6.138 15.335-12.269 15.335-65.955 0-119.633 59.817-119.633 138.037-1.532 7.667-7.667 13.807-13.807 13.807z" fill="#FFFFFF" p-id="21588"></path><path d="M423.147 281.653c0 10.16 6.865 18.405 15.335 18.405s15.335-8.241 15.335-18.405c0-10.16-6.865-18.405-15.335-18.405-8.473 0-15.335 8.241-15.335 18.405z" fill="#FFFFFF" p-id="21589"></path></svg>