<?xml version="1.0" standalone="no"?><!DOCTYPE svg PUBLIC "-//W3C//DTD SVG 1.1//EN"
  "http://www.w3.org/Graphics/SVG/1.1/DTD/svg11.dtd">
<svg class="icon" width="20px" height="20.00px" viewBox="0 0 1024 1024" version="1.1"
     xmlns="http://www.w3.org/2000/svg">
  <path
    d="M827.534 77c44.486 0 80.548 36.029 80.548 80.472v558.71c0 44.443-36.062 80.472-80.548 80.472H212.712c-30.82 0-54.876 22.177-54.876 48.283 0 25.845 23.577 47.84 53.953 48.277l0.923 0.006h695.37c16.523 0 29.918 13.383 29.918 29.89 0 16.272-13.015 29.507-29.212 29.882l-0.706 0.008h-695.37C149.872 953 98 905.179 98 844.937c0-26.42 9.977-50.451 26.481-69.107C108.217 761.11 98 739.837 98 716.18V157.472C98 113.03 134.063 77 178.548 77h648.986z m0 59.78l-294.576-0.001v298.898c0 25.505-29.836 39.182-49.166 22.883l-0.583-0.503-77.976-68.971-77.977 68.97c-19.114 16.907-49.141 3.654-49.74-21.61l-0.01-0.769V136.78h-98.958c-11.235 0-20.38 8.937-20.704 20.083l-0.008 0.61v558.71c0 11.223 8.945 20.36 20.101 20.683l0.61 0.009h648.987c11.235 0 20.38-8.937 20.704-20.083l0.009-0.61V157.472c0-11.224-8.945-20.36-20.102-20.684l-0.61-0.008z m-354.41 13.795H337.341v218.717l48.06-42.505c11.122-9.838 27.746-10.01 39.061-0.518l0.601 0.518 48.06 42.507v-218.72z"/>
</svg>
