<?xml version="1.0" standalone="no"?><!DOCTYPE svg PUBLIC "-//W3C//DTD SVG 1.1//EN" "http://www.w3.org/Graphics/SVG/1.1/DTD/svg11.dtd"><svg class="icon" width="20px" height="20.00px" viewBox="0 0 1024 1024" version="1.1" xmlns="http://www.w3.org/2000/svg"><path d="M805.61 580.82c-17.67 0-32-14.33-32-32V206.44c0-2.29-0.35-4.14-0.79-5.56l-156.44 63.61c-0.85 1.18-2.19 4.26-2.19 8.55v164.48c0 17.67-14.33 32-32 32s-32-14.33-32-32V273.05c0-30.34 16.48-57.43 41.01-67.4l163.81-66.6c17.36-7.05 36.35-5 52.12 5.61 19.09 12.85 30.48 35.95 30.48 61.79v342.38c0 17.66-14.33 31.99-32 31.99zM716.46 868.49c-5.53 0-11.05-1.43-16-4.29l-96.62-55.79c-9.9-5.72-16-16.28-16-27.71V669.13c0-11.43 6.1-22 16-27.71l96.62-55.79c9.9-5.72 22.1-5.72 32 0l96.63 55.79c9.9 5.72 16 16.28 16 27.71V780.7c0 11.43-6.1 22-16 27.71l-96.63 55.79a31.975 31.975 0 0 1-16 4.29z m-64.62-106.26l64.62 37.31 64.63-37.31v-74.62l-64.63-37.31-64.62 37.31v74.62zM430.11 890.15c-7.21 0-14.47-1.26-21.53-3.83l-185.34-67.24c-26.52-9.63-44.33-36.01-44.33-65.66V203.33c0-23.07 10.78-44.56 28.83-57.48 16.86-12.07 37.66-15.21 57.09-8.6l185.36 63.12c27.23 9.28 45.51 35.83 45.51 66.08v554.21c-0.01 23.36-11 44.99-29.39 57.88-10.96 7.67-23.49 11.61-36.2 11.61zM244.8 198.04c-0.68 0.61-1.89 2.25-1.89 5.29v550.09c0 3.44 1.7 5.29 2.18 5.5l184.73 67.02c0.69-0.62 1.88-2.26 1.88-5.29v-554.2c0-3.42-1.69-5.28-2.17-5.51l-184.73-62.9z" /></svg>
