<?xml version="1.0" standalone="no"?><!DOCTYPE svg PUBLIC "-//W3C//DTD SVG 1.1//EN"
  "http://www.w3.org/Graphics/SVG/1.1/DTD/svg11.dtd">
<svg t="1608964181048" class="icon" viewBox="0 0 1024 1024" version="1.1" xmlns="http://www.w3.org/2000/svg" p-id="3101"
     xmlns:xlink="http://www.w3.org/1999/xlink" width="48" height="48">
  <defs>
    <style type="text/css"></style>
  </defs>
  <path
    d="M303.59 466.051c11.488 0 24.615 4.924 32.821 13.128L754.873 896c18.051 18.051 18.051 49.232 0 67.283s-49.232 18.051-67.283 0L270.769 546.462c-18.051-18.051-18.051-49.232 0-67.283 8.205-8.205 21.333-13.128 32.821-13.128z"
    p-id="3102" fill="#2c2c2c"></path>
  <path
    d="M720.411 47.59c11.488 0 24.615 4.924 32.821 13.128 18.051 18.051 18.051 49.232 0 67.283L336.411 544.822c-18.051 18.051-49.232 18.051-67.283 0s-18.051-49.232 0-67.283L687.59 60.718c9.846-8.205 21.333-13.128 32.821-13.128z"
    p-id="3103" fill="#2c2c2c"></path>
</svg>
