<?xml version="1.0" standalone="no"?><!DOCTYPE svg PUBLIC "-//W3C//DTD SVG 1.1//EN" "http://www.w3.org/Graphics/SVG/1.1/DTD/svg11.dtd"><svg t="1609578154839" class="icon" viewBox="0 0 1024 1024" version="1.1" xmlns="http://www.w3.org/2000/svg" p-id="3928" xmlns:xlink="http://www.w3.org/1999/xlink" width="48" height="48"><defs><style type="text/css"></style></defs><path d="M955.360202 918.519644c-25.074072 25.048489-53.722552 2.611477-65.296145-8.762571L682.00851 705.47241c-3.572362 0.425695 55.169507-47.481408 55.510268-48.362474l208.936613 196.908672C957.998285 865.392656 981.854623 891.99964 955.360202 918.519644L955.360202 918.519644z" p-id="3929" fill="#999999"></path><path d="M468.833363 758.739591c172.189687 0 312.255747-140.065036 312.255747-312.217884 0-172.188664-140.066059-312.254723-312.255747-312.254723-172.161035 0-312.227094 140.066059-312.227094 312.254723C156.606269 618.674555 296.672328 758.739591 468.833363 758.739591M468.833363 831.383074c-212.537627 0-384.854205-172.318624-384.854205-384.863415 0-212.571397 172.316577-384.874671 384.854205-384.874671 212.551954 0 384.868531 172.303274 384.868531 384.874671C853.701894 659.066497 681.385317 831.383074 468.833363 831.383074L468.833363 831.383074 468.833363 831.383074z" p-id="3930" fill="#999999"></path></svg>