<?xml version="1.0" standalone="no"?><!DOCTYPE svg PUBLIC "-//W3C//DTD SVG 1.1//EN" "http://www.w3.org/Graphics/SVG/1.1/DTD/svg11.dtd"><svg t="1608952175482" class="icon" viewBox="0 0 1024 1024" version="1.1" xmlns="http://www.w3.org/2000/svg" p-id="8466" xmlns:xlink="http://www.w3.org/1999/xlink" width="48" height="48"><defs><style type="text/css"></style></defs><path d="M518.826667 262.826667c-141.653333 0-256 114.346667-256 256s114.346667 256 256 256 256-114.346667 256-256-114.346667-256-256-256z m0 455.68c-109.226667 0-199.68-88.746667-199.68-199.68 0-110.933333 88.746667-199.68 199.68-199.68 110.933333 0 199.68 88.746667 199.68 199.68 0 109.226667-88.746667 199.68-199.68 199.68z m0 0M518.826667 225.28c15.36 0 27.306667-11.946667 27.306666-27.306667v-136.533333c0-15.36-11.946667-27.306667-27.306666-27.306667-15.36 0-27.306667 11.946667-27.306667 27.306667v134.826667c0 17.066667 11.946667 29.013333 27.306667 29.013333z m0 0M518.826667 812.373333c-15.36 0-27.306667 11.946667-27.306667 27.306667v134.826667c0 15.36 11.946667 27.306667 27.306667 27.306666 15.36 0 27.306667-11.946667 27.306666-27.306666v-134.826667c0-15.36-11.946667-27.306667-27.306666-27.306667z m0 0M271.36 312.32c5.12 5.12 11.946667 8.533333 20.48 8.533333s13.653333-3.413333 20.48-8.533333c10.24-10.24 10.24-29.013333 0-39.253333l-95.573333-95.573334c-10.24-10.24-29.013333-10.24-39.253334 0-10.24 10.24-10.24 29.013333 0 39.253334l93.866667 95.573333z m0 0M766.293333 725.333333c-10.24-10.24-29.013333-10.24-39.253333 0-10.24 10.24-10.24 29.013333 0 39.253334l95.573333 95.573333c5.12 5.12 11.946667 8.533333 20.48 8.533333 6.826667 0 13.653333-3.413333 20.48-8.533333 10.24-10.24 10.24-29.013333 0-39.253333l-97.28-95.573334z m0 0M225.28 518.826667c0-15.36-11.946667-27.306667-27.306667-27.306667h-136.533333c-15.36 0-27.306667 11.946667-27.306667 27.306667 0 15.36 11.946667 27.306667 27.306667 27.306666h134.826667c17.066667 0 29.013333-11.946667 29.013333-27.306666z m0 0M976.213333 491.52h-134.826666c-15.36 0-27.306667 11.946667-27.306667 27.306667 0 15.36 11.946667 27.306667 27.306667 27.306666h134.826666c15.36 0 27.306667-11.946667 27.306667-29.013333 0-13.653333-11.946667-25.6-27.306667-25.6z m0 0M271.36 725.333333l-95.573333 95.573334c-10.24 10.24-10.24 29.013333 0 39.253333 5.12 5.12 11.946667 8.533333 20.48 8.533333 6.826667 0 13.653333-3.413333 20.48-8.533333l95.573333-95.573333c10.24-10.24 10.24-29.013333 0-39.253334-11.946667-10.24-29.013333-10.24-40.96 0z m0 0M745.813333 320.853333c6.826667 0 13.653333-3.413333 20.48-8.533333l95.573334-95.573333c10.24-10.24 10.24-29.013333 0-39.253334-10.24-10.24-29.013333-10.24-39.253334 0L727.04 273.066667c-10.24 10.24-10.24 29.013333 0 39.253333 5.12 5.12 11.946667 8.533333 18.773333 8.533333z m0 0" fill="" p-id="8467"></path></svg>