<?xml version="1.0" standalone="no"?><!DOCTYPE svg PUBLIC "-//W3C//DTD SVG 1.1//EN" "http://www.w3.org/Graphics/SVG/1.1/DTD/svg11.dtd"><svg t="1613824045446" class="icon" viewBox="0 0 1024 1024" version="1.1" xmlns="http://www.w3.org/2000/svg" p-id="10274" xmlns:xlink="http://www.w3.org/1999/xlink" width="64" height="64"><defs><style type="text/css"></style></defs><path d="M379.6 315.2c-54.2 28-43.1 376.8 0 399 43.1 22.3 385.9-139.7 385.9-199.5 0-59.8-331.7-227.6-385.9-199.5z m293.9 210.3c-28.6 20.2-69.2 43.7-114 65.9-43.5 21.6-87.7 40.4-122.7 52.3-6.5 2.2-12.5 4.1-18 5.8-0.8-4-1.7-8.3-2.5-12.9-5.7-32.6-9.2-76.1-9.9-120.5-0.7-45.5 1.7-88.6 6.8-120.6 1.1-7.2 2.4-13.7 3.7-19.2 8.5 2.1 16.9 4.6 25.1 7.3 34.5 11.3 77.8 30 120.8 52 43.3 22.2 83 46.1 111 66.8 5.6 4.1 10.6 8 14.9 11.7-4.2 3.5-9.4 7.3-15.2 11.4z" p-id="10275"></path><path d="M1020.5 428.3c-4.2-8.5-11.7-15.1-21.1-18.3-17.9-6-37.4 2.2-45.2 18.3h-3.5v328.4c0 64.1-54.6 116.3-121.8 116.3H195.1c-67.2 0-121.8-52.2-121.8-116.3V271.6c0-64.1 54.6-116.3 121.8-116.3h469.8V152c8.8-3.9 15.6-11.1 19.1-20.2 3.2-8.7 2.8-18.2-1.3-26.6-3.7-7.7-9.9-13.7-17.8-17.2v-3.3H174C78 84.7 0 159.5 0 251.4V777c0 91.9 78 166.7 174 166.7h676c95.9 0 174-74.8 174-166.7V428.3h-3.5z" p-id="10276"></path><path d="M664.5 416.2C572.3 360.1 417 290.3 377.3 310.8 340.8 329.6 338 461.2 338 501c0 49.8 3.6 100.8 9.8 139.9 7.2 45.2 17.1 71.3 29.5 77.7 3.5 1.8 8.3 2.6 14.1 2.6 25.8 0 71.2-15.8 108.3-30.6 59.3-23.7 125.1-56.4 176.2-87.4 62.7-38.2 94.6-68 94.6-88.5 0-28.1-57.7-69.1-106-98.5zM692 517.8c-4.5 3.6-9.8 7.6-15.6 11.7-28.5 20.2-69.3 43.8-114.6 66.3-43.3 21.5-88.2 40.7-123.3 52.6-6.2 2.1-12.4 4.1-18.2 5.8l-5.1 1.5-1.1-5.2c-0.9-4.2-1.7-8.6-2.5-13.2-5.6-32.5-9.3-76.7-9.9-121.3-0.7-46 1.7-89.2 6.9-121.5 1.1-7.1 2.4-13.7 3.8-19.6l1.2-4.9 4.9 1.2c8.7 2.2 17.3 4.7 25.5 7.4 34.9 11.5 78 30 121.5 52.3 43.8 22.4 83.5 46.3 111.7 67.3l12 8.9h-0.5c1.2 1 2.4 2 3.5 2.9l4.6 3.9-4.8 3.9zM987.3 185.8h-69V120c0-19.4-16.4-35.3-36.7-35.3-20.2 0-36.7 15.8-36.7 35.3v65.8h-69c-20.2 0-36.7 15.8-36.7 35.3 0 19.5 16.4 35.3 36.7 35.3h69v65.8c0 19.5 16.5 35.3 36.7 35.3 20.2 0 36.6-15.8 36.6-35.3v-65.8h69c20.2 0 36.7-15.8 36.7-35.3 0.1-19.5-16.3-35.3-36.6-35.3z" p-id="10277"></path></svg>