<?xml version="1.0" standalone="no"?><!DOCTYPE svg PUBLIC "-//W3C//DTD SVG 1.1//EN" "http://www.w3.org/Graphics/SVG/1.1/DTD/svg11.dtd"><svg t="1611543642329" class="icon" viewBox="0 0 1024 1024" version="1.1" xmlns="http://www.w3.org/2000/svg" p-id="5898" xmlns:xlink="http://www.w3.org/1999/xlink" width="48" height="48"><defs><style type="text/css"></style></defs><path d="M994.792575 80.148714L948.116923 29.105749A92.941868 92.941868 0 0 0 880.048264 0.001706a75.950293 75.950293 0 0 0-56.229148 24.907329L327.071443 532.336152a8.359309 8.359309 0 0 0-0.580034 3.548441 10.815922 10.815922 0 0 0 0 2.968408L274.186018 741.318877c-3.139006 11.97599-0.136479 24.80497 7.881635 33.846672a30.775905 30.775905 0 0 0 22.484835 10.09941h8.427548l185.644899-55.20556a7.540438 7.540438 0 0 0 5.595619 0L1000.422313 223.246436a90.99705 90.99705 0 0 0 23.064869-68.88753 110.786434 110.786434 0 0 0-28.694607-74.210192zM348.46445 700.955356l26.988626-105.702609 69.194607 77.1786-96.183233 28.524009z m146.782642-70.661751l-80.419965-87.858043L772.571433 186.431357l82.125947 86.697976-359.450288 357.164272z m456.793588-466.415323l-49.507581 53.431339-79.294017-86.083823 48.381633-52.851305a21.631845 21.631845 0 0 1 31.492418 0l46.675652 51.042964a29.035804 29.035804 0 0 1 7.881634 19.584667 21.597725 21.597725 0 0 1-5.629739 14.876158z m-0.341196 279.098562a32.413647 32.413647 0 0 0-23.133108 10.406487 34.597303 34.597303 0 0 0-9.24642 24.259056v433.080446c0.307077 24.088458-18.151642 43.946082-41.387109 44.560235H106.351565c-23.235467-0.614153-41.694186-20.471777-41.387109-44.560235V148.319732c-0.307077-24.054338 18.151642-43.911962 41.387109-44.526116h477.504203c17.128054-1.705981 30.093512-16.786857 29.718196-34.631423 0.375316-17.810446-12.590143-32.925442-29.718196-34.631423H106.351565a101.130579 101.130579 0 0 0-76.018532 31.185341 108.773376 108.773376 0 0 0-30.093513 78.782222V914.066557c-0.852991 28.558129 9.348778 56.263268 28.421651 76.939762s45.310867 32.550126 72.913646 32.993681h781.680692a101.369417 101.369417 0 0 0 72.913646-32.993681 108.773376 108.773376 0 0 0 28.421651-76.939762V477.062353c0-18.799915-14.73968-34.085509-32.891322-34.085509z" fill="#707070" p-id="5899"></path></svg>