<?xml version="1.0" standalone="no"?><!DOCTYPE svg PUBLIC "-//W3C//DTD SVG 1.1//EN" "http://www.w3.org/Graphics/SVG/1.1/DTD/svg11.dtd"><svg t="1611559991166" class="icon" viewBox="0 0 1024 1024" version="1.1" xmlns="http://www.w3.org/2000/svg" p-id="3305" xmlns:xlink="http://www.w3.org/1999/xlink" width="48" height="48"><defs><style type="text/css"></style></defs><path d="M100.5 926.8C80.9 871.7 71.1 814 71.1 755.5c0-237.5 175-454 402.5-503.2l0.7-161.7c0.1-10.7 6.3-20.5 16-24.9 9.7-4.6 21.2-3 29.4 4l423.6 359.5c6.1 5.2 9.7 12.9 9.7 20.9 0 8.1-3.5 15.8-9.6 21l-426 364.3c-8.2 7-19.7 8.7-29.4 4.1-9.8-4.5-16-14.3-16-25V642.1c-146.3 35.3-269.7 144.2-319.5 284.7-3.9 11-14.3 18.4-26 18.4s-22.1-7.3-26-18.4z m416.9-339.4c6.2 5.2 9.7 12.9 9.7 21v146.3L883 450.3 529.2 150.1l-0.6 124.7c0 1 0 2-0.1 3-1.2 13.1-11.6 23.5-24.6 24.8C292 338.3 126.2 536.8 126.2 755.5c0 27.1 2.3 54 7 80.4C207 703.2 342 606.3 495 581.2c1.5-0.3 3-0.4 4.5-0.4 6.5 0.1 12.9 2.4 17.9 6.6z" p-id="3306" fill="#707070"></path></svg>